# xmcd
#
# Track frame offsets:
#	150
#	23223
#	41089
#	68546
#	96006
#	138817
#	166013
#	186129
#	202843
#	243278
#	259044
#	288727
#	317867
#
# Disc length: 4554 seconds
# Revision: 0
# Processed by: cddbd v1.5.2PL0 Copyright (c) Steve Scherf et al.
# Submitted via: dBpowerAMP V12.0
#
DISCID=ac11c80d
DTITLE=Deeper Blues - Dig the Hole
DYEAR=2008
DGENRE=Blues
TTITLE0=Time of My Dyin' Part 1
TTITLE1=Black Sheep
TTITLE2=Gravedigger Jones
TTITLE3=Highway 61 Revisited
TTITLE4=Stormfront
TTITLE5=Hound Dog
TTITLE6=Coupe de Ville
TTITLE7=Wish
TTITLE8=Sober Up or Die
TTITLE9=I'd Die for You
TTITLE10=Daddy's Pier
TTITLE11=Time of My Dyin' Part 2
TTITLE12=Underground
EXTD=
EXTT0=
EXTT1=
EXTT2=
EXTT3=
EXTT4=
EXTT5=
EXTT6=
EXTT7=
EXTT8=
EXTT9=
EXTT10=
EXTT11=
EXTT12=
PLAYORDER=
